<svg xmlns="http://www.w3.org/2000/svg" width="1600" height="900" viewBox="0 0 1600 900">
  <defs>
    <linearGradient id="g" x1="0" x2="1">
      <stop offset="0" stop-color="#F9F0E6" />
      <stop offset="1" stop-color="#F2E6D9" />
    </linearGradient>
    <filter id="shadow" x="-20%" y="-20%" width="140%" height="140%">
      <feDropShadow dx="0" dy="20" stdDeviation="30" flood-color="#d6c0b0" flood-opacity="0.45"/>
    </filter>
  </defs>
  <rect width="100%" height="100%" fill="url(#g)" />
  <g transform="translate(80,80)" filter="url(#shadow)">
    <rect x="600" y="40" rx="24" ry="24" width="640" height="640" fill="#F4E9DE" stroke="#E6D5C6" stroke-dasharray="4 6"/>
    <g transform="translate(660,110)">
      <ellipse cx="250" cy="230" rx="180" ry="100" fill="#F0D6C0"/>
      <g transform="translate(40,40)" fill="#D8A77F">
        <path d="M60 60c40-36 120-36 160 0 12 10 30 6 36-8 10-26 60-36 86-8 16 18 14 42-4 64-26 30-70 46-94 48-22 2-68-8-120-40-44-28-54-68-24-104z"/>
      </g>
    </g>
  </g>
  <text x="120" y="220" font-family="Georgia, serif" font-size="64" fill="#6B3E2A" font-weight="700">Freshly Baked</text>
  <text x="120" y="280" font-family="Inter, sans-serif" font-size="20" fill="#6B3E2A">Pastries, breads, and cakes — warm morning light</text>
</svg>
