<svg xmlns="http://www.w3.org/2000/svg" width="480" height="520" viewBox="0 0 480 520">
<defs><linearGradient id="id10" x1="0" y1="0" x2="1" y2="1"><stop offset="0" stop-color="#f9f4ed"/><stop offset="1" stop-color="#eee7db"/></linearGradient>
  <filter id="softid10" x="-30%" y="-30%" width="160%" height="160%"><feDropShadow dx="0" dy="10" stdDeviation="14" flood-color="#402310" flood-opacity="0.16"/></filter>
  </defs><rect width="480" height="520" fill="url(#id10)"/>
<rect x="0" y="0" width="480" height="520" fill="#eee7db"/><circle cx="240" cy="322.4" r="297.6" fill="#fff2eb" opacity="0.6"/><path d="M 76.79999999999998 520 Q 96 395.2 240 374.4 Q 384 395.2 403.20000000000005 520 Z" fill="#474238"/><rect x="226" y="262.8" width="28" height="30" fill="#d9a86c"/><circle cx="240" cy="228.8" r="58" fill="#d9a86c"/><path d="M 186 222.8 Q 182 192.8 210 182.8" stroke="#1c1c1c" stroke-width="10" fill="none" stroke-linecap="round" opacity="0.5"/><circle cx="222" cy="232.8" r="4.5" fill="#402310"/><circle cx="258" cy="232.8" r="4.5" fill="#402310"/><path d="M 224 254.8 Q 240 264.8 256 254.8" stroke="#402310" stroke-width="3.4" fill="none" stroke-linecap="round"/><path d="M 216 218.8 Q 222 212.8 230 218.8" stroke="#402310" stroke-width="2.4" fill="none" stroke-linecap="round" opacity="0.6"/><path d="M 250 218.8 Q 258 212.8 264 218.8" stroke="#402310" stroke-width="2.4" fill="none" stroke-linecap="round" opacity="0.6"/><path d="M 214 447.2 L 236 468 L 214 488.79999999999995 Z" fill="#b2622d"/><path d="M 266 447.2 L 244 468 L 266 488.79999999999995 Z" fill="#b2622d"/><circle cx="240" cy="468" r="5" fill="#8c491a"/>
</svg>
