<svg xmlns="http://www.w3.org/2000/svg" width="1200" height="800" viewBox="0 0 1200 800">
<defs><linearGradient id="id4" x1="0" y1="0" x2="1" y2="1"><stop offset="0" stop-color="#f9f4ed"/><stop offset="1" stop-color="#f5ead8"/></linearGradient>
  <filter id="softid4" x="-30%" y="-30%" width="160%" height="160%"><feDropShadow dx="0" dy="10" stdDeviation="14" flood-color="#402310" flood-opacity="0.16"/></filter>
  </defs><rect width="1200" height="800" fill="url(#id4)"/>
<circle cx="600" cy="320" r="300" fill="#fff2eb" opacity="0.6"/><g transform="translate(600 448.00000000000006) scale(1.5)"><ellipse cx="0" cy="150" rx="150" ry="16" fill="#402310" opacity="0.08"/><rect x="-90" y="60" width="180" height="26" rx="10" fill="#474238"/><rect x="-96" y="86" width="14" height="70" fill="#474238"/><rect x="82" y="86" width="14" height="70" fill="#474238"/><circle cx="0" cy="55" r="34" fill="#ffc6a5"/><circle cx="17.6" cy="55.0" r="1.4" fill="#fffaf4" opacity="0.6"/><circle cx="16.6" cy="74.2" r="2.4" fill="#fffaf4" opacity="0.6"/><circle cx="-16.2" cy="68.8" r="3.4" fill="#fffaf4" opacity="0.6"/><circle cx="-20.1" cy="53.3" r="1.4" fill="#fffaf4" opacity="0.6"/><circle cx="-13.0" cy="33.1" r="2.4" fill="#fffaf4" opacity="0.6"/><circle cx="21.0" cy="41.5" r="3.4" fill="#fffaf4" opacity="0.6"/><circle cx="22.0" cy="58.7" r="1.4" fill="#fffaf4" opacity="0.6"/><circle cx="8.4" cy="79.3" r="2.4" fill="#fffaf4" opacity="0.6"/><circle cx="-25.9" cy="67.7" r="3.4" fill="#fffaf4" opacity="0.6"/><circle cx="-23.4" cy="48.9" r="1.4" fill="#fffaf4" opacity="0.6"/><circle cx="-1.2" cy="44.5" r="2.4" fill="#fffaf4" opacity="0.6"/><circle cx="30.8" cy="43.7" r="3.4" fill="#fffaf4" opacity="0.6"/><circle cx="24.1" cy="63.8" r="1.4" fill="#fffaf4" opacity="0.6"/><circle cx="-1.4" cy="67.1" r="2.4" fill="#fffaf4" opacity="0.6"/><circle cx="-35.5" cy="64.3" r="3.4" fill="#fffaf4" opacity="0.6"/><circle cx="-23.9" cy="43.3" r="1.4" fill="#fffaf4" opacity="0.6"/><path d="M -50 -20 Q -55 40 -20 60 L 20 60 Q 55 40 50 -20 Q 40 -60 0 -62 Q -40 -60 -50 -20 Z" fill="#fff2eb"/><rect x="-10" y="-96" width="20" height="26" rx="8" fill="#e6c79a"/><circle cx="0" cy="-108" r="26" fill="#e6c79a"/><path d="M -26 -118 Q 0 -140 26 -118 Q 26 -128 0 -132 Q -26 -128 -26 -118 Z" fill="#474238"/><rect x="-30" y="-140" width="60" height="14" rx="7" fill="#fffaf4"/><ellipse cx="0" cy="-150" rx="26" ry="14" fill="#fffaf4"/><ellipse cx="-30" cy="46" rx="15" ry="20" fill="#e6c79a" transform="rotate(-10 -30 46)"/><ellipse cx="30" cy="46" rx="15" ry="20" fill="#e6c79a" transform="rotate(10 30 46)"/><rect x="-40" y="18" width="80" height="10" rx="5" fill="#474238"/><circle cx="-40" cy="23" r="8" fill="#474238"/><circle cx="40" cy="23" r="8" fill="#474238"/></g>
</svg>
