<svg xmlns="http://www.w3.org/2000/svg" width="1600" height="900" viewBox="0 0 1600 900">
<defs><linearGradient id="id0" x1="0" y1="0" x2="1" y2="1"><stop offset="0" stop-color="#f9f4ed"/><stop offset="1" stop-color="#f5ead8"/></linearGradient>
  <filter id="softid0" x="-30%" y="-30%" width="160%" height="160%"><feDropShadow dx="0" dy="10" stdDeviation="14" flood-color="#402310" flood-opacity="0.16"/></filter>
  </defs><rect width="1600" height="900" fill="url(#id0)"/>
<circle cx="800" cy="468" r="320" fill="#fff2eb" opacity="0.7"/><g transform="rotate(0 650 538)"><path d="M 555 613 Q 555 463 650 463 Q 745 463 745 613 Z" fill="#8c491a"/><path d="M 565 613 Q 565 479 650 479 Q 735 479 735 613 Z" fill="#f6a06b" opacity="0.5"/><path d="M 576.4181818181819 526 Q 606.8181818181819 478 637.2181818181818 475" stroke="#b2622d" stroke-width="4" fill="none" stroke-linecap="round" opacity="0.55"/><path d="M 619.6 526 Q 650 478 680.4 475" stroke="#b2622d" stroke-width="4" fill="none" stroke-linecap="round" opacity="0.55"/><path d="M 662.7818181818182 526 Q 693.1818181818181 478 723.5818181818181 475" stroke="#b2622d" stroke-width="4" fill="none" stroke-linecap="round" opacity="0.55"/></g><g transform="rotate(-10 810 408)"><ellipse cx="810" cy="459.48" rx="70.2" ry="12.48" fill="#402310" opacity="0.08"/><path d="M 736.7039755786991 381.32242882059785 A 78 78 0 1 1 883.2960244213009 381.32242882059785" stroke="#d67f48" stroke-width="51.480000000000004" fill="none" stroke-linecap="round"/><path d="M 736.7039755786991 381.32242882059785 A 78 78 0 1 1 883.2960244213009 381.32242882059785" stroke="#b2622d" stroke-width="51.480000000000004" fill="none" stroke-linecap="round" opacity="0.22" transform="translate(0 8.2368)"/><line x1="743.4" y1="437.6" x2="731.2" y2="443.1" stroke="#b2622d" stroke-width="2.4" opacity="0.4" stroke-linecap="round"/><line x1="782.7" y1="475.5" x2="777.7" y2="488.0" stroke="#b2622d" stroke-width="2.4" opacity="0.4" stroke-linecap="round"/><line x1="837.3" y1="475.5" x2="842.3" y2="488.0" stroke="#b2622d" stroke-width="2.4" opacity="0.4" stroke-linecap="round"/><line x1="876.6" y1="437.6" x2="888.8" y2="443.1" stroke="#b2622d" stroke-width="2.4" opacity="0.4" stroke-linecap="round"/><ellipse cx="741.1" cy="371.4" rx="15.444" ry="11.325600000000001" fill="#d67f48" transform="rotate(290 741.1 371.4)"/><ellipse cx="878.9" cy="371.4" rx="13.384800000000002" ry="9.2664" fill="#d67f48" transform="rotate(70 878.9 371.4)"/><path d="M 737.100059970395 450.0888 A 84.1776 84.1776 0 0 1 874.483782715092 462.10831829314964" stroke="#fff2eb" stroke-width="3" fill="none" opacity="0.35" stroke-linecap="round"/></g><g><ellipse cx="990" cy="650.9333333333333" rx="78" ry="12.466666666666667" fill="#402310" opacity="0.1"/><rect x="925" y="591.7733333333334" width="130" height="51.22666666666667" rx="7.8" fill="#8c491a"/><rect x="1039.4" y="591.7733333333334" width="15.6" height="51.22666666666667" rx="7.8" fill="#402310" opacity="0.08"/><rect x="925" y="586.3333333333334" width="130" height="13.6" rx="6.8" fill="#fff2eb"/><path d="M 935.25 595.8533333333334 q 6 6 0 12.466666666666667" stroke="#fff2eb" stroke-width="8" fill="none" stroke-linecap="round" opacity="0.9"/><path d="M 967.75 595.8533333333334 q 6 6 0 18.133333333333333" stroke="#fff2eb" stroke-width="8" fill="none" stroke-linecap="round" opacity="0.9"/><path d="M 1000.25 595.8533333333334 q 6 6 0 12.466666666666667" stroke="#fff2eb" stroke-width="8" fill="none" stroke-linecap="round" opacity="0.9"/><path d="M 1032.75 595.8533333333334 q 6 6 0 18.133333333333333" stroke="#fff2eb" stroke-width="8" fill="none" stroke-linecap="round" opacity="0.9"/><rect x="934.75" y="535.1066666666667" width="110.5" height="51.22666666666667" rx="6.63" fill="#b2622d"/><rect x="1031.99" y="535.1066666666667" width="13.26" height="51.22666666666667" rx="6.63" fill="#402310" opacity="0.08"/><rect x="934.75" y="529.6666666666666" width="110.5" height="13.6" rx="6.8" fill="#fff2eb"/><path d="M 942.5625 539.1866666666666 q 6 6 0 12.466666666666667" stroke="#fff2eb" stroke-width="8" fill="none" stroke-linecap="round" opacity="0.9"/><path d="M 970.1875 539.1866666666666 q 6 6 0 18.133333333333333" stroke="#fff2eb" stroke-width="8" fill="none" stroke-linecap="round" opacity="0.9"/><path d="M 997.8125 539.1866666666666 q 6 6 0 12.466666666666667" stroke="#fff2eb" stroke-width="8" fill="none" stroke-linecap="round" opacity="0.9"/><path d="M 1025.4375 539.1866666666666 q 6 6 0 18.133333333333333" stroke="#fff2eb" stroke-width="8" fill="none" stroke-linecap="round" opacity="0.9"/><rect x="944.5" y="478.44" width="91" height="51.22666666666667" rx="5.46" fill="#d67f48"/><rect x="1024.58" y="478.44" width="10.92" height="51.22666666666667" rx="5.46" fill="#402310" opacity="0.08"/><rect x="944.5" y="473" width="91" height="13.6" rx="6.8" fill="#fff2eb"/><path d="M 949.875 482.52 q 6 6 0 12.466666666666667" stroke="#fff2eb" stroke-width="8" fill="none" stroke-linecap="round" opacity="0.9"/><path d="M 972.625 482.52 q 6 6 0 18.133333333333333" stroke="#fff2eb" stroke-width="8" fill="none" stroke-linecap="round" opacity="0.9"/><path d="M 995.375 482.52 q 6 6 0 12.466666666666667" stroke="#fff2eb" stroke-width="8" fill="none" stroke-linecap="round" opacity="0.9"/><path d="M 1018.125 482.52 q 6 6 0 18.133333333333333" stroke="#fff2eb" stroke-width="8" fill="none" stroke-linecap="round" opacity="0.9"/><circle cx="990" cy="461" r="10" fill="#b3432f"/><circle cx="987" cy="457" r="2.6" fill="#f2a89a" opacity="0.8"/><path d="M 990 452 q 4 -14 14 -16" stroke="#728157" stroke-width="3" fill="none" stroke-linecap="round"/></g><g><circle cx="770" cy="598" r="40" fill="#ffc6a5"/><circle cx="770" cy="598" r="34.4" fill="#ffc6a5" opacity="0"/><circle cx="780.0" cy="598.0" r="3" fill="#402310" opacity="0.85"/><circle cx="762.9" cy="611.7" r="4" fill="#402310" opacity="0.85"/><circle cx="757.9" cy="581.0" r="5" fill="#402310" opacity="0.85"/><circle cx="795.9" cy="594.3" r="3" fill="#402310" opacity="0.85"/><circle cx="765.5" cy="610.8" r="4" fill="#402310" opacity="0.85"/><circle cx="756.9" cy="584.2" r="5" fill="#402310" opacity="0.85"/></g><circle cx="928.0" cy="698.0" r="1.4" fill="#402310" opacity="0.2"/><circle cx="930.8" cy="834.5" r="2.4" fill="#402310" opacity="0.2"/><circle cx="696.9" cy="804.2" r="3.4" fill="#402310" opacity="0.2"/><circle cx="652.8" cy="697.5" r="1.4" fill="#402310" opacity="0.2"/><circle cx="661.0" cy="551.0" r="2.4" fill="#402310" opacity="0.2"/><circle cx="913.8" cy="582.2" r="3.4" fill="#402310" opacity="0.2"/><circle cx="966.4" cy="699.1" r="1.4" fill="#402310" opacity="0.2"/><circle cx="947.0" cy="855.5" r="2.4" fill="#402310" opacity="0.2"/><circle cx="675.3" cy="823.3" r="3.4" fill="#402310" opacity="0.2"/><circle cx="614.4" cy="696.1" r="1.4" fill="#402310" opacity="0.2"/><circle cx="738.1" cy="630.8" r="2.4" fill="#402310" opacity="0.2"/><circle cx="935.8" cy="563.3" r="3.4" fill="#402310" opacity="0.2"/><circle cx="1004.7" cy="700.8" r="1.4" fill="#402310" opacity="0.2"/><circle cx="870.5" cy="775.5" r="2.4" fill="#402310" opacity="0.2"/><circle cx="652.9" cy="842.1" r="3.4" fill="#402310" opacity="0.2"/><circle cx="576.1" cy="694.2" r="1.4" fill="#402310" opacity="0.2"/><circle cx="721.1" cy="610.1" r="2.4" fill="#402310" opacity="0.2"/><circle cx="958.6" cy="544.6" r="3.4" fill="#402310" opacity="0.2"/>
</svg>
