<svg xmlns="http://www.w3.org/2000/svg" width="1600" height="700" viewBox="0 0 1600 700">
<defs><linearGradient id="id2" x1="0" y1="0" x2="1" y2="1"><stop offset="0" stop-color="#f9f4ed"/><stop offset="1" stop-color="#f5ead8"/></linearGradient>
  <filter id="softid2" x="-30%" y="-30%" width="160%" height="160%"><feDropShadow dx="0" dy="10" stdDeviation="14" flood-color="#402310" flood-opacity="0.16"/></filter>
  </defs><rect width="1600" height="700" fill="url(#id2)"/>
<circle cx="800" cy="392.00000000000006" r="300" fill="#fff2eb" opacity="0.55"/><g><ellipse cx="710" cy="552.5" rx="132" ry="16.5" fill="#402310" opacity="0.1"/><rect x="600" y="474.2" width="220" height="67.8" rx="13.2" fill="#8c491a"/><rect x="793.6" y="474.2" width="26.4" height="67.8" rx="13.2" fill="#402310" opacity="0.08"/><rect x="600" y="467" width="220" height="18" rx="9" fill="#fff2eb"/><path d="M 621.5 479.6 q 6 6 0 16.5" stroke="#fff2eb" stroke-width="8" fill="none" stroke-linecap="round" opacity="0.9"/><path d="M 676.5 479.6 q 6 6 0 24" stroke="#fff2eb" stroke-width="8" fill="none" stroke-linecap="round" opacity="0.9"/><path d="M 731.5 479.6 q 6 6 0 16.5" stroke="#fff2eb" stroke-width="8" fill="none" stroke-linecap="round" opacity="0.9"/><path d="M 786.5 479.6 q 6 6 0 24" stroke="#fff2eb" stroke-width="8" fill="none" stroke-linecap="round" opacity="0.9"/><rect x="616.5" y="399.2" width="187" height="67.8" rx="11.219999999999999" fill="#b2622d"/><rect x="781.06" y="399.2" width="22.439999999999998" height="67.8" rx="11.219999999999999" fill="#402310" opacity="0.08"/><rect x="616.5" y="392" width="187" height="18" rx="9" fill="#fff2eb"/><path d="M 633.875 404.6 q 6 6 0 16.5" stroke="#fff2eb" stroke-width="8" fill="none" stroke-linecap="round" opacity="0.9"/><path d="M 680.625 404.6 q 6 6 0 24" stroke="#fff2eb" stroke-width="8" fill="none" stroke-linecap="round" opacity="0.9"/><path d="M 727.375 404.6 q 6 6 0 16.5" stroke="#fff2eb" stroke-width="8" fill="none" stroke-linecap="round" opacity="0.9"/><path d="M 774.125 404.6 q 6 6 0 24" stroke="#fff2eb" stroke-width="8" fill="none" stroke-linecap="round" opacity="0.9"/><rect x="633" y="324.2" width="154" height="67.8" rx="9.24" fill="#d67f48"/><rect x="768.52" y="324.2" width="18.48" height="67.8" rx="9.24" fill="#402310" opacity="0.08"/><rect x="633" y="317" width="154" height="18" rx="9" fill="#fff2eb"/><path d="M 646.25 329.6 q 6 6 0 16.5" stroke="#fff2eb" stroke-width="8" fill="none" stroke-linecap="round" opacity="0.9"/><path d="M 684.75 329.6 q 6 6 0 24" stroke="#fff2eb" stroke-width="8" fill="none" stroke-linecap="round" opacity="0.9"/><path d="M 723.25 329.6 q 6 6 0 16.5" stroke="#fff2eb" stroke-width="8" fill="none" stroke-linecap="round" opacity="0.9"/><path d="M 761.75 329.6 q 6 6 0 24" stroke="#fff2eb" stroke-width="8" fill="none" stroke-linecap="round" opacity="0.9"/><rect x="649.5" y="249.2" width="121.00000000000001" height="67.8" rx="7.260000000000001" fill="#f6a06b"/><rect x="755.98" y="249.2" width="14.520000000000001" height="67.8" rx="7.260000000000001" fill="#402310" opacity="0.08"/><rect x="649.5" y="242" width="121.00000000000001" height="18" rx="9" fill="#fff2eb"/><path d="M 658.625 254.6 q 6 6 0 16.5" stroke="#fff2eb" stroke-width="8" fill="none" stroke-linecap="round" opacity="0.9"/><path d="M 688.875 254.6 q 6 6 0 24" stroke="#fff2eb" stroke-width="8" fill="none" stroke-linecap="round" opacity="0.9"/><path d="M 719.125 254.6 q 6 6 0 16.5" stroke="#fff2eb" stroke-width="8" fill="none" stroke-linecap="round" opacity="0.9"/><path d="M 749.375 254.6 q 6 6 0 24" stroke="#fff2eb" stroke-width="8" fill="none" stroke-linecap="round" opacity="0.9"/><ellipse cx="719" cy="230.00000000000006" rx="6" ry="8" fill="#fffaf4" transform="rotate(0 710 230.00000000000006)"/><ellipse cx="712.7811529493745" cy="238.55950864665644" rx="6" ry="8" fill="#fffaf4" transform="rotate(72 710 230.00000000000006)"/><ellipse cx="702.7188470506255" cy="235.2900672706323" rx="6" ry="8" fill="#fffaf4" transform="rotate(144 710 230.00000000000006)"/><ellipse cx="702.7188470506255" cy="224.7099327293678" rx="6" ry="8" fill="#fffaf4" transform="rotate(216 710 230.00000000000006)"/><ellipse cx="712.7811529493745" cy="221.44049135334367" rx="6" ry="8" fill="#fffaf4" transform="rotate(288 710 230.00000000000006)"/><circle cx="710" cy="230.00000000000006" r="3.4" fill="#f6c667"/></g><g><ellipse cx="990" cy="540.3" rx="90" ry="20.9" fill="#402310" opacity="0.1"/><rect x="915" y="441.12" width="150" height="85.88" rx="9" fill="#b2622d"/><rect x="1047" y="441.12" width="18" height="85.88" rx="9" fill="#402310" opacity="0.08"/><rect x="915" y="432" width="150" height="22.8" rx="11.4" fill="#fff2eb"/><path d="M 927.75 447.96 q 6 6 0 20.9" stroke="#fff2eb" stroke-width="8" fill="none" stroke-linecap="round" opacity="0.9"/><path d="M 965.25 447.96 q 6 6 0 30.400000000000002" stroke="#fff2eb" stroke-width="8" fill="none" stroke-linecap="round" opacity="0.9"/><path d="M 1002.75 447.96 q 6 6 0 20.9" stroke="#fff2eb" stroke-width="8" fill="none" stroke-linecap="round" opacity="0.9"/><path d="M 1040.25 447.96 q 6 6 0 30.400000000000002" stroke="#fff2eb" stroke-width="8" fill="none" stroke-linecap="round" opacity="0.9"/><rect x="926.25" y="346.12" width="127.5" height="85.88" rx="7.6499999999999995" fill="#d67f48"/><rect x="1038.45" y="346.12" width="15.299999999999999" height="85.88" rx="7.6499999999999995" fill="#402310" opacity="0.08"/><rect x="926.25" y="337" width="127.5" height="22.8" rx="11.4" fill="#fff2eb"/><path d="M 936.1875 352.96 q 6 6 0 20.9" stroke="#fff2eb" stroke-width="8" fill="none" stroke-linecap="round" opacity="0.9"/><path d="M 968.0625 352.96 q 6 6 0 30.400000000000002" stroke="#fff2eb" stroke-width="8" fill="none" stroke-linecap="round" opacity="0.9"/><path d="M 999.9375 352.96 q 6 6 0 20.9" stroke="#fff2eb" stroke-width="8" fill="none" stroke-linecap="round" opacity="0.9"/><path d="M 1031.8125 352.96 q 6 6 0 30.400000000000002" stroke="#fff2eb" stroke-width="8" fill="none" stroke-linecap="round" opacity="0.9"/><circle cx="990" cy="327.00000000000006" r="8" fill="#fff2eb"/><circle cx="994.4" cy="327.0" r="1.4" fill="#402310" opacity="0.5"/><circle cx="988.4" cy="332.3" r="2.4" fill="#402310" opacity="0.5"/><circle cx="983.4" cy="325.5" r="3.4" fill="#402310" opacity="0.5"/><circle cx="992.6" cy="324.4" r="1.4" fill="#402310" opacity="0.5"/><circle cx="997.4" cy="330.8" r="2.4" fill="#402310" opacity="0.5"/><circle cx="984.1" cy="329.9" r="3.4" fill="#402310" opacity="0.5"/></g><circle cx="968.0" cy="582.0" r="1.4" fill="#402310" opacity="0.18"/><circle cx="997.0" cy="751.5" r="2.4" fill="#402310" opacity="0.18"/><circle cx="707.1" cy="733.3" r="3.4" fill="#402310" opacity="0.18"/><circle cx="613.1" cy="611.4" r="1.4" fill="#402310" opacity="0.18"/><circle cx="518.7" cy="438.2" r="2.4" fill="#402310" opacity="0.18"/><circle cx="828.4" cy="406.4" r="3.4" fill="#402310" opacity="0.18"/><circle cx="990.4" cy="517.8" r="1.4" fill="#402310" opacity="0.18"/><circle cx="1155.6" cy="684.9" r="2.4" fill="#402310" opacity="0.18"/><circle cx="850.7" cy="771.1" r="3.4" fill="#402310" opacity="0.18"/><circle cx="624.9" cy="683.6" r="1.4" fill="#402310" opacity="0.18"/><circle cx="635.1" cy="562.6" r="2.4" fill="#402310" opacity="0.18"/><circle cx="660.9" cy="393.0" r="3.4" fill="#402310" opacity="0.18"/><circle cx="939.6" cy="444.2" r="1.4" fill="#402310" opacity="0.18"/><circle cx="992.8" cy="574.7" r="2.4" fill="#402310" opacity="0.18"/><circle cx="1030.1" cy="755.5" r="3.4" fill="#402310" opacity="0.18"/><circle cx="716.0" cy="751.0" r="1.4" fill="#402310" opacity="0.18"/><circle cx="592.6" cy="623.1" r="2.4" fill="#402310" opacity="0.18"/><circle cx="484.0" cy="440.0" r="3.4" fill="#402310" opacity="0.18"/><circle cx="810.7" cy="390.6" r="1.4" fill="#402310" opacity="0.18"/><circle cx="1004.4" cy="502.5" r="2.4" fill="#402310" opacity="0.18"/><circle cx="955.6" cy="620.0" r="3.4" fill="#402310" opacity="0.18"/><circle cx="876.0" cy="783.5" r="1.4" fill="#402310" opacity="0.18"/><circle cx="618.9" cy="701.2" r="2.4" fill="#402310" opacity="0.18"/><circle cx="608.4" cy="566.9" r="3.4" fill="#402310" opacity="0.18"/>
</svg>
